ffmpeg started on 2026-04-01 at 12:30:21
Report written to "D:\Convert\FFMetrics\reports\ssim_report-6.txt"
Log level: 32
Command line:
ffmpeg -hide_banner -nostdin -r 24000/1001 -i "F:\\Convert\\files\\[DC] Make Heroine ga Oosugiru - 07_Telegram_HEVC(287).mkv" -r 24000/1001 -i "F:\\Convert\\files\\[DC] Make Heroine ga Oosugiru - 07_Telegram.mp4" -lavfi "[0:v]settb=AVTB,setpts=PTS-STARTPTS,format=pix_fmts=yuv420p10le,fps=24000/1001,scale=1920:1080:flags=lanczos:param0=3:out_range=limited:out_color_matrix=bt709:out_chroma_loc=left,setsar=1/1,setdar=(1920/1080)*(1/1),colorspace=format=yuv420p10:range=tv:primaries=bt709:trc=bt709:space=bt709:fast=0[main];[1:v]settb=AVTB,setpts=PTS-STARTPTS,format=pix_fmts=yuv420p,fps=24000/1001,scale=1920:1080:flags=lanczos:param0=3:out_range=limited:out_color_matrix=bt709:out_chroma_loc=left,setsar=1/1,setdar=(1920/1080)*(1/1),colorspace=format=yuv420p:range=tv:primaries=bt709:trc=bt709:space=bt709:fast=0[ref];[main][ref]ssim=eof_action=endall:stats_file='D\\:/Convert/FFMetrics/logs/ssim_logfile-6.txt'" -f null -
Input #0, matroska,webm, from 'F:\Convert\files\[DC] Make Heroine ga Oosugiru - 07_Telegram_HEVC(287).mkv':
  Metadata:
    COMPATIBLE_BRANDS: isomiso2avc1mp41
    MAJOR_BRAND     : isom
    MINOR_VERSION   : 512
    ENCODER         : Lavf61.7.100
  Duration: 00:24:06.79, start: -0.021000, bitrate: 1053 kb/s
  Stream #0:0: Video: hevc (Main 10), yuv420p10le(tv, bt709, progressive), 1920x1080 [SAR 1:1 DAR 16:9], 23.98 fps, 23.98 tbr, 1k tbn (default)
      Metadata:
        HANDLER_NAME    : VideoHandler
        VENDOR_ID       : [0][0][0][0]
        ENCODER         : Lavc61.19.100 libx265
        BPS             : 856439
        DURATION        : 00:24:06.569708333
        NUMBER_OF_FRAMES: 34683
        NUMBER_OF_BYTES : 154862363
        _STATISTICS_WRITING_APP: mkvpropedit v94.0 ('Initiate') 64-bit
        _STATISTICS_WRITING_DATE_UTC: 2026-03-30 15:57:22
        _STATISTICS_TAGS: BPS DURATION NUMBER_OF_FRAMES NUMBER_OF_BYTES
  Stream #0:1: Audio: aac (LC), 48000 Hz, stereo, fltp (default)
      Metadata:
        HANDLER_NAME    : SoundHandler
        VENDOR_ID       : [0][0][0][0]
        ENCODER         : Lavc61.19.100 aac
        BPS             : 193194
        DURATION        : 00:24:06.784000000
        NUMBER_OF_FRAMES: 67819
        NUMBER_OF_BYTES : 34938755
        _STATISTICS_WRITING_APP: mkvpropedit v94.0 ('Initiate') 64-bit
        _STATISTICS_WRITING_DATE_UTC: 2026-03-30 15:57:22
        _STATISTICS_TAGS: BPS DURATION NUMBER_OF_FRAMES NUMBER_OF_BYTES
Input #1, mov,mp4,m4a,3gp,3g2,mj2, from 'F:\Convert\files\[DC] Make Heroine ga Oosugiru - 07_Telegram.mp4':
  Metadata:
    major_brand     : isom
    minor_version   : 512
    compatible_brands: isomiso2avc1mp41
    encoder         : Lavf60.16.100
  Duration: 00:24:06.74, start: 0.000000, bitrate: 3764 kb/s
  Stream #1:0[0x1](und): Video: h264 (High) (avc1 / 0x31637661), yuv420p(tv, bt709, progressive), 1920x1080 [SAR 1:1 DAR 16:9], 3616 kb/s, 23.98 fps, 23.98 tbr, 24k tbn (default)
      Metadata:
        handler_name    : VideoHandler
        vendor_id       : [0][0][0][0]
        encoder         : Lavc60.31.102 h264_qsv
  Stream #1:1[0x2](und): Audio: aac (HE-AACv2) (mp4a / 0x6134706D), 48000 Hz, stereo, fltp, 144 kb/s (default)
      Metadata:
        handler_name    : SoundHandler
        vendor_id       : [0][0][0][0]
Stream mapping:
  Stream #0:0 (hevc) -> settb:default
  Stream #1:0 (h264) -> settb:default
  ssim:default -> Stream #0:0 (wrapped_avframe)
  Stream #0:1 -> #0:1 (aac (native) -> pcm_s16le (native))
Output #0, null, to 'pipe:':
  Metadata:
    COMPATIBLE_BRANDS: isomiso2avc1mp41
    MAJOR_BRAND     : isom
    MINOR_VERSION   : 512
    encoder         : Lavf61.7.100
  Stream #0:0: Video: wrapped_avframe, yuv420p10le(tv, bt709, progressive), 1920x1080 [SAR 1:1 DAR 16:9], q=2-31, 200 kb/s, 23.98 fps, 23.98 tbn
      Metadata:
        encoder         : Lavc61.19.100 wrapped_avframe
  Stream #0:1: Audio: pcm_s16le, 48000 Hz, stereo, s16, 1536 kb/s (default)
      Metadata:
        HANDLER_NAME    : SoundHandler
        VENDOR_ID       : [0][0][0][0]
        _STATISTICS_TAGS: BPS DURATION NUMBER_OF_FRAMES NUMBER_OF_BYTES
        BPS             : 193194
        DURATION        : 00:24:06.784000000
        NUMBER_OF_FRAMES: 67819
        NUMBER_OF_BYTES : 34938755
        _STATISTICS_WRITING_APP: mkvpropedit v94.0 ('Initiate') 64-bit
        _STATISTICS_WRITING_DATE_UTC: 2026-03-30 15:57:22
        encoder         : Lavc61.19.100 pcm_s16le
frame=  110 fps=0.0 q=-0.0 size=N/A time=00:00:04.58 bitrate=N/A speed=9.08x    frame=  281 fps=272 q=-0.0 size=N/A time=00:00:11.72 bitrate=N/A speed=11.4x    frame=  458 fps=297 q=-0.0 size=N/A time=00:00:19.10 bitrate=N/A speed=12.4x    frame=  651 fps=317 q=-0.0 size=N/A time=00:00:27.15 bitrate=N/A speed=13.2x    frame=  844 fps=328 q=-0.0 size=N/A time=00:00:35.20 bitrate=N/A speed=13.7x    frame=  992 fps=320 q=-0.0 size=N/A time=00:00:41.37 bitrate=N/A speed=13.4x    frame= 1149 fps=318 q=-0.0 size=N/A time=00:00:47.92 bitrate=N/A speed=13.3x    frame= 1310 fps=318 q=-0.0 size=N/A time=00:00:54.63 bitrate=N/A speed=13.3x    frame= 1472 fps=318 q=-0.0 size=N/A time=00:01:01.39 bitrate=N/A speed=13.3x    frame= 1626 fps=315 q=-0.0 size=N/A time=00:01:07.81 bitrate=N/A speed=13.1x    frame= 1784 fps=315 q=-0.0 size=N/A time=00:01:14.40 bitrate=N/A speed=13.1x    frame= 1951 fps=315 q=-0.0 size=N/A time=00:01:21.37 bitrate=N/A speed=13.1x    frame= 2078 fps=310 q=-0.0 size=N/A time=00:01:26.66 bitrate=N/A speed=12.9x    frame= 2217 fps=307 q=-0.0 size=N/A time=00:01:32.46 bitrate=N/A speed=12.8x    frame= 2364 fps=306 q=-0.0 size=N/A time=00:01:38.59 bitrate=N/A speed=12.8x    frame= 2502 fps=303 q=-0.0 size=N/A time=00:01:44.35 bitrate=N/A speed=12.6x    frame= 2653 fps=303 q=-0.0 size=N/A time=00:01:50.65 bitrate=N/A speed=12.6x    frame= 2830 fps=305 q=-0.0 size=N/A time=00:01:58.03 bitrate=N/A speed=12.7x    frame= 3002 fps=307 q=-0.0 size=N/A time=00:02:05.20 bitrate=N/A speed=12.8x    frame= 3193 fps=310 q=-0.0 size=N/A time=00:02:13.17 bitrate=N/A speed=12.9x    frame= 3380 fps=312 q=-0.0 size=N/A time=00:02:20.97 bitrate=N/A speed=  13x    frame= 3579 fps=316 q=-0.0 size=N/A time=00:02:29.27 bitrate=N/A speed=13.2x    frame= 3771 fps=318 q=-0.0 size=N/A time=00:02:37.28 bitrate=N/A speed=13.3x    frame= 3956 fps=320 q=-0.0 size=N/A time=00:02:44.99 bitrate=N/A speed=13.3x    frame= 4151 fps=322 q=-0.0 size=N/A time=00:02:53.13 bitrate=N/A speed=13.4x    frame= 4348 fps=324 q=-0.0 size=N/A time=00:03:01.34 bitrate=N/A speed=13.5x    frame= 4526 fps=325 q=-0.0 size=N/A time=00:03:08.77 bitrate=N/A speed=13.6x    frame= 4714 fps=326 q=-0.0 size=N/A time=00:03:16.61 bitrate=N/A speed=13.6x    frame= 4892 fps=327 q=-0.0 size=N/A time=00:03:24.03 bitrate=N/A speed=13.6x    frame= 5078 fps=328 q=-0.0 size=N/A time=00:03:31.79 bitrate=N/A speed=13.7x    frame= 5247 fps=328 q=-0.0 size=N/A time=00:03:38.84 bitrate=N/A speed=13.7x    frame= 5415 fps=328 q=-0.0 size=N/A time=00:03:45.85 bitrate=N/A speed=13.7x    frame= 5585 fps=328 q=-0.0 size=N/A time=00:03:52.94 bitrate=N/A speed=13.7x    frame= 5746 fps=327 q=-0.0 size=N/A time=00:03:59.65 bitrate=N/A speed=13.7x    frame= 5929 fps=328 q=-0.0 size=N/A time=00:04:07.28 bitrate=N/A speed=13.7x    frame= 6101 fps=329 q=-0.0 size=N/A time=00:04:14.46 bitrate=N/A speed=13.7x    frame= 6262 fps=328 q=-0.0 size=N/A time=00:04:21.17 bitrate=N/A speed=13.7x    frame= 6429 fps=328 q=-0.0 size=N/A time=00:04:28.14 bitrate=N/A speed=13.7x    frame= 6600 fps=328 q=-0.0 size=N/A time=00:04:35.27 bitrate=N/A speed=13.7x    frame= 6766 fps=328 q=-0.0 size=N/A time=00:04:42.19 bitrate=N/A speed=13.7x    frame= 6936 fps=328 q=-0.0 size=N/A time=00:04:49.28 bitrate=N/A speed=13.7x    frame= 7094 fps=328 q=-0.0 size=N/A time=00:04:55.87 bitrate=N/A speed=13.7x    frame= 7255 fps=327 q=-0.0 size=N/A time=00:05:02.59 bitrate=N/A speed=13.6x    frame= 7413 fps=327 q=-0.0 size=N/A time=00:05:09.18 bitrate=N/A speed=13.6x    frame= 7573 fps=326 q=-0.0 size=N/A time=00:05:15.85 bitrate=N/A speed=13.6x    frame= 7722 fps=325 q=-0.0 size=N/A time=00:05:22.07 bitrate=N/A speed=13.6x    frame= 7874 fps=325 q=-0.0 size=N/A time=00:05:28.41 bitrate=N/A speed=13.5x    frame= 8040 fps=325 q=-0.0 size=N/A time=00:05:35.33 bitrate=N/A speed=13.5x    frame= 8214 fps=325 q=-0.0 size=N/A time=00:05:42.59 bitrate=N/A speed=13.6x    frame= 8390 fps=325 q=-0.0 size=N/A time=00:05:49.93 bitrate=N/A speed=13.6x    frame= 8546 fps=325 q=-0.0 size=N/A time=00:05:56.43 bitrate=N/A speed=13.5x    frame= 8712 fps=325 q=-0.0 size=N/A time=00:06:03.36 bitrate=N/A speed=13.5x    frame= 8878 fps=325 q=-0.0 size=N/A time=00:06:10.28 bitrate=N/A speed=13.5x    frame= 9044 fps=325 q=-0.0 size=N/A time=00:06:17.21 bitrate=N/A speed=13.5x    frame= 9205 fps=325 q=-0.0 size=N/A time=00:06:23.92 bitrate=N/A speed=13.5x    frame= 9370 fps=324 q=-0.0 size=N/A time=00:06:30.80 bitrate=N/A speed=13.5x    frame= 9525 fps=324 q=-0.0 size=N/A time=00:06:37.27 bitrate=N/A speed=13.5x    frame= 9704 fps=324 q=-0.0 size=N/A time=00:06:44.73 bitrate=N/A speed=13.5x    frame= 9856 fps=324 q=-0.0 size=N/A time=00:06:51.07 bitrate=N/A speed=13.5x    frame=10019 fps=324 q=-0.0 size=N/A time=00:06:57.87 bitrate=N/A speed=13.5x    frame=10196 fps=324 q=-0.0 size=N/A time=00:07:05.25 bitrate=N/A speed=13.5x    frame=10368 fps=324 q=-0.0 size=N/A time=00:07:12.43 bitrate=N/A speed=13.5x    frame=10516 fps=324 q=-0.0 size=N/A time=00:07:18.60 bitrate=N/A speed=13.5x    frame=10672 fps=323 q=-0.0 size=N/A time=00:07:25.11 bitrate=N/A speed=13.5x    frame=10846 fps=323 q=-0.0 size=N/A time=00:07:32.36 bitrate=N/A speed=13.5x    frame=11015 fps=324 q=-0.0 size=N/A time=00:07:39.41 bitrate=N/A speed=13.5x    frame=11192 fps=324 q=-0.0 size=N/A time=00:07:46.79 bitrate=N/A speed=13.5x    frame=11370 fps=324 q=-0.0 size=N/A time=00:07:54.22 bitrate=N/A speed=13.5x    frame=11546 fps=324 q=-0.0 size=N/A time=00:08:01.56 bitrate=N/A speed=13.5x    frame=11726 fps=325 q=-0.0 size=N/A time=00:08:09.07 bitrate=N/A speed=13.5x    frame=11870 fps=324 q=-0.0 size=N/A time=00:08:15.07 bitrate=N/A speed=13.5x    frame=12040 fps=324 q=-0.0 size=N/A time=00:08:22.16 bitrate=N/A speed=13.5x    frame=12190 fps=324 q=-0.0 size=N/A time=00:08:28.42 bitrate=N/A speed=13.5x    frame=12365 fps=324 q=-0.0 size=N/A time=00:08:35.72 bitrate=N/A speed=13.5x    frame=12516 fps=323 q=-0.0 size=N/A time=00:08:42.02 bitrate=N/A speed=13.5x    frame=12682 fps=324 q=-0.0 size=N/A time=00:08:48.94 bitrate=N/A speed=13.5x    frame=12840 fps=323 q=-0.0 size=N/A time=00:08:55.53 bitrate=N/A speed=13.5x    frame=13002 fps=323 q=-0.0 size=N/A time=00:09:02.29 bitrate=N/A speed=13.5x    frame=13154 fps=323 q=-0.0 size=N/A time=00:09:08.63 bitrate=N/A speed=13.5x    frame=13305 fps=322 q=-0.0 size=N/A time=00:09:14.92 bitrate=N/A speed=13.4x    frame=13481 fps=323 q=-0.0 size=N/A time=00:09:22.27 bitrate=N/A speed=13.5x    frame=13672 fps=323 q=-0.0 size=N/A time=00:09:30.23 bitrate=N/A speed=13.5x    frame=13851 fps=323 q=-0.0 size=N/A time=00:09:37.70 bitrate=N/A speed=13.5x    frame=14025 fps=324 q=-0.0 size=N/A time=00:09:44.95 bitrate=N/A speed=13.5x    frame=14197 fps=324 q=-0.0 size=N/A time=00:09:52.13 bitrate=N/A speed=13.5x    frame=14377 fps=324 q=-0.0 size=N/A time=00:09:59.64 bitrate=N/A speed=13.5x    frame=14551 fps=324 q=-0.0 size=N/A time=00:10:06.89 bitrate=N/A speed=13.5x    frame=14727 fps=324 q=-0.0 size=N/A time=00:10:14.23 bitrate=N/A speed=13.5x    frame=14907 fps=325 q=-0.0 size=N/A time=00:10:21.74 bitrate=N/A speed=13.5x    frame=15090 fps=325 q=-0.0 size=N/A time=00:10:29.37 bitrate=N/A speed=13.6x    frame=15243 fps=325 q=-0.0 size=N/A time=00:10:35.76 bitrate=N/A speed=13.5x    frame=15425 fps=325 q=-0.0 size=N/A time=00:10:43.35 bitrate=N/A speed=13.6x    frame=15612 fps=325 q=-0.0 size=N/A time=00:10:51.15 bitrate=N/A speed=13.6x    frame=15794 fps=326 q=-0.0 size=N/A time=00:10:58.74 bitrate=N/A speed=13.6x    frame=15976 fps=326 q=-0.0 size=N/A time=00:11:06.33 bitrate=N/A speed=13.6x    frame=16166 fps=326 q=-0.0 size=N/A time=00:11:14.25 bitrate=N/A speed=13.6x    frame=16349 fps=327 q=-0.0 size=N/A time=00:11:21.88 bitrate=N/A speed=13.6x    frame=16523 fps=327 q=-0.0 size=N/A time=00:11:29.14 bitrate=N/A speed=13.6x    frame=16711 fps=327 q=-0.0 size=N/A time=00:11:36.98 bitrate=N/A speed=13.6x    frame=16897 fps=327 q=-0.0 size=N/A time=00:11:44.74 bitrate=N/A speed=13.7x    frame=17081 fps=328 q=-0.0 size=N/A time=00:11:52.42 bitrate=N/A speed=13.7x    frame=17265 fps=328 q=-0.0 size=N/A time=00:12:00.09 bitrate=N/A speed=13.7x    frame=17444 fps=328 q=-0.0 size=N/A time=00:12:07.56 bitrate=N/A speed=13.7x    frame=17622 fps=328 q=-0.0 size=N/A time=00:12:14.98 bitrate=N/A speed=13.7x    frame=17798 fps=328 q=-0.0 size=N/A time=00:12:22.32 bitrate=N/A speed=13.7x    frame=17971 fps=329 q=-0.0 size=N/A time=00:12:29.54 bitrate=N/A speed=13.7x    frame=18166 fps=329 q=-0.0 size=N/A time=00:12:37.67 bitrate=N/A speed=13.7x    frame=18331 fps=329 q=-0.0 size=N/A time=00:12:44.55 bitrate=N/A speed=13.7x    frame=18509 fps=329 q=-0.0 size=N/A time=00:12:51.97 bitrate=N/A speed=13.7x    frame=18697 fps=329 q=-0.0 size=N/A time=00:12:59.82 bitrate=N/A speed=13.7x    frame=18875 fps=330 q=-0.0 size=N/A time=00:13:07.24 bitrate=N/A speed=13.7x    frame=19056 fps=330 q=-0.0 size=N/A time=00:13:14.79 bitrate=N/A speed=13.8x    frame=19243 fps=330 q=-0.0 size=N/A time=00:13:22.59 bitrate=N/A speed=13.8x    frame=19433 fps=330 q=-0.0 size=N/A time=00:13:30.51 bitrate=N/A speed=13.8x    frame=19616 fps=331 q=-0.0 size=N/A time=00:13:38.15 bitrate=N/A speed=13.8x    frame=19798 fps=331 q=-0.0 size=N/A time=00:13:45.74 bitrate=N/A speed=13.8x    frame=19990 fps=331 q=-0.0 size=N/A time=00:13:53.74 bitrate=N/A speed=13.8x    frame=20184 fps=331 q=-0.0 size=N/A time=00:14:01.84 bitrate=N/A speed=13.8x    frame=20347 fps=331 q=-0.0 size=N/A time=00:14:08.63 bitrate=N/A speed=13.8x    frame=20507 fps=331 q=-0.0 size=N/A time=00:14:15.31 bitrate=N/A speed=13.8x    frame=20659 fps=331 q=-0.0 size=N/A time=00:14:21.65 bitrate=N/A speed=13.8x    frame=20835 fps=331 q=-0.0 size=N/A time=00:14:28.99 bitrate=N/A speed=13.8x    frame=21007 fps=331 q=-0.0 size=N/A time=00:14:36.16 bitrate=N/A speed=13.8x    frame=21181 fps=331 q=-0.0 size=N/A time=00:14:43.42 bitrate=N/A speed=13.8x    frame=21356 fps=331 q=-0.0 size=N/A time=00:14:50.72 bitrate=N/A speed=13.8x    frame=21530 fps=331 q=-0.0 size=N/A time=00:14:57.98 bitrate=N/A speed=13.8x    frame=21705 fps=331 q=-0.0 size=N/A time=00:15:05.27 bitrate=N/A speed=13.8x    frame=21888 fps=331 q=-0.0 size=N/A time=00:15:12.91 bitrate=N/A speed=13.8x    frame=22058 fps=331 q=-0.0 size=N/A time=00:15:20.00 bitrate=N/A speed=13.8x    frame=22229 fps=331 q=-0.0 size=N/A time=00:15:27.13 bitrate=N/A speed=13.8x    frame=22399 fps=331 q=-0.0 size=N/A time=00:15:34.22 bitrate=N/A speed=13.8x    frame=22581 fps=332 q=-0.0 size=N/A time=00:15:41.81 bitrate=N/A speed=13.8x    frame=22756 fps=332 q=-0.0 size=N/A time=00:15:49.11 bitrate=N/A speed=13.8x    frame=22927 fps=332 q=-0.0 size=N/A time=00:15:56.24 bitrate=N/A speed=13.8x    frame=23105 fps=332 q=-0.0 size=N/A time=00:16:03.67 bitrate=N/A speed=13.8x    frame=23286 fps=332 q=-0.0 size=N/A time=00:16:11.22 bitrate=N/A speed=13.8x    frame=23473 fps=332 q=-0.0 size=N/A time=00:16:19.01 bitrate=N/A speed=13.8x    frame=23652 fps=332 q=-0.0 size=N/A time=00:16:26.48 bitrate=N/A speed=13.9x    frame=23838 fps=332 q=-0.0 size=N/A time=00:16:34.24 bitrate=N/A speed=13.9x    frame=24003 fps=332 q=-0.0 size=N/A time=00:16:41.12 bitrate=N/A speed=13.9x    frame=24167 fps=332 q=-0.0 size=N/A time=00:16:47.96 bitrate=N/A speed=13.9x    frame=24359 fps=332 q=-0.0 size=N/A time=00:16:55.97 bitrate=N/A speed=13.9x    frame=24541 fps=333 q=-0.0 size=N/A time=00:17:03.56 bitrate=N/A speed=13.9x    frame=24717 fps=333 q=-0.0 size=N/A time=00:17:10.90 bitrate=N/A speed=13.9x    frame=24906 fps=333 q=-0.0 size=N/A time=00:17:18.78 bitrate=N/A speed=13.9x    frame=25088 fps=333 q=-0.0 size=N/A time=00:17:26.37 bitrate=N/A speed=13.9x    frame=25247 fps=333 q=-0.0 size=N/A time=00:17:33.01 bitrate=N/A speed=13.9x    frame=25423 fps=333 q=-0.0 size=N/A time=00:17:40.35 bitrate=N/A speed=13.9x    frame=25605 fps=333 q=-0.0 size=N/A time=00:17:47.94 bitrate=N/A speed=13.9x    frame=25770 fps=333 q=-0.0 size=N/A time=00:17:54.82 bitrate=N/A speed=13.9x    frame=25962 fps=333 q=-0.0 size=N/A time=00:18:02.83 bitrate=N/A speed=13.9x    frame=26129 fps=333 q=-0.0 size=N/A time=00:18:09.79 bitrate=N/A speed=13.9x    frame=26305 fps=333 q=-0.0 size=N/A time=00:18:17.13 bitrate=N/A speed=13.9x    frame=26479 fps=333 q=-0.0 size=N/A time=00:18:24.39 bitrate=N/A speed=13.9x    frame=26657 fps=333 q=-0.0 size=N/A time=00:18:31.81 bitrate=N/A speed=13.9x    frame=26848 fps=334 q=-0.0 size=N/A time=00:18:39.78 bitrate=N/A speed=13.9x    frame=27000 fps=333 q=-0.0 size=N/A time=00:18:46.12 bitrate=N/A speed=13.9x    frame=27152 fps=333 q=-0.0 size=N/A time=00:18:52.46 bitrate=N/A speed=13.9x    frame=27336 fps=333 q=-0.0 size=N/A time=00:19:00.13 bitrate=N/A speed=13.9x    frame=27516 fps=333 q=-0.0 size=N/A time=00:19:07.64 bitrate=N/A speed=13.9x    frame=27705 fps=334 q=-0.0 size=N/A time=00:19:15.52 bitrate=N/A speed=13.9x    frame=27895 fps=334 q=-0.0 size=N/A time=00:19:23.45 bitrate=N/A speed=13.9x    frame=28078 fps=334 q=-0.0 size=N/A time=00:19:31.08 bitrate=N/A speed=13.9x    frame=28258 fps=334 q=-0.0 size=N/A time=00:19:38.59 bitrate=N/A speed=13.9x    frame=28435 fps=334 q=-0.0 size=N/A time=00:19:45.97 bitrate=N/A speed=13.9x    frame=28629 fps=334 q=-0.0 size=N/A time=00:19:54.06 bitrate=N/A speed=13.9x    frame=28806 fps=334 q=-0.0 size=N/A time=00:20:01.45 bitrate=N/A speed=13.9x    frame=28973 fps=334 q=-0.0 size=N/A time=00:20:08.41 bitrate=N/A speed=13.9x    frame=29146 fps=334 q=-0.0 size=N/A time=00:20:15.63 bitrate=N/A speed=13.9x    frame=29333 fps=334 q=-0.0 size=N/A time=00:20:23.43 bitrate=N/A speed=13.9x    frame=29497 fps=334 q=-0.0 size=N/A time=00:20:30.27 bitrate=N/A speed=13.9x    frame=29673 fps=334 q=-0.0 size=N/A time=00:20:37.61 bitrate=N/A speed=13.9x    frame=29845 fps=334 q=-0.0 size=N/A time=00:20:44.78 bitrate=N/A speed=13.9x    frame=29987 fps=334 q=-0.0 size=N/A time=00:20:50.70 bitrate=N/A speed=13.9x    frame=30136 fps=334 q=-0.0 size=N/A time=00:20:56.92 bitrate=N/A speed=13.9x    frame=30307 fps=334 q=-0.0 size=N/A time=00:21:04.05 bitrate=N/A speed=13.9x    frame=30477 fps=334 q=-0.0 size=N/A time=00:21:11.14 bitrate=N/A speed=13.9x    frame=30643 fps=334 q=-0.0 size=N/A time=00:21:18.06 bitrate=N/A speed=13.9x    frame=30822 fps=334 q=-0.0 size=N/A time=00:21:25.53 bitrate=N/A speed=13.9x    frame=30991 fps=334 q=-0.0 size=N/A time=00:21:32.58 bitrate=N/A speed=13.9x    frame=31139 fps=333 q=-0.0 size=N/A time=00:21:38.75 bitrate=N/A speed=13.9x    frame=31302 fps=333 q=-0.0 size=N/A time=00:21:45.55 bitrate=N/A speed=13.9x    frame=31443 fps=333 q=-0.0 size=N/A time=00:21:51.43 bitrate=N/A speed=13.9x    frame=31618 fps=333 q=-0.0 size=N/A time=00:21:58.73 bitrate=N/A speed=13.9x    frame=31774 fps=333 q=-0.0 size=N/A time=00:22:05.24 bitrate=N/A speed=13.9x    frame=31918 fps=333 q=-0.0 size=N/A time=00:22:11.24 bitrate=N/A speed=13.9x    frame=32075 fps=332 q=-0.0 size=N/A time=00:22:17.79 bitrate=N/A speed=13.9x    frame=32262 fps=333 q=-0.0 size=N/A time=00:22:25.59 bitrate=N/A speed=13.9x    frame=32449 fps=333 q=-0.0 size=N/A time=00:22:33.39 bitrate=N/A speed=13.9x    frame=32631 fps=333 q=-0.0 size=N/A time=00:22:40.98 bitrate=N/A speed=13.9x    frame=32768 fps=332 q=-0.0 size=N/A time=00:22:46.69 bitrate=N/A speed=13.9x    frame=32928 fps=332 q=-0.0 size=N/A time=00:22:53.37 bitrate=N/A speed=13.9x    frame=33110 fps=332 q=-0.0 size=N/A time=00:23:00.96 bitrate=N/A speed=13.9x    frame=33285 fps=332 q=-0.0 size=N/A time=00:23:08.26 bitrate=N/A speed=13.9x    frame=33456 fps=332 q=-0.0 size=N/A time=00:23:15.39 bitrate=N/A speed=13.9x    frame=33605 fps=332 q=-0.0 size=N/A time=00:23:21.60 bitrate=N/A speed=13.9x    frame=33748 fps=332 q=-0.0 size=N/A time=00:23:27.57 bitrate=N/A speed=13.8x    frame=33872 fps=332 q=-0.0 size=N/A time=00:23:32.74 bitrate=N/A speed=13.8x    frame=34022 fps=331 q=-0.0 size=N/A time=00:23:39.00 bitrate=N/A speed=13.8x    frame=34183 fps=331 q=-0.0 size=N/A time=00:23:45.71 bitrate=N/A speed=13.8x    frame=34327 fps=331 q=-0.0 size=N/A time=00:23:51.72 bitrate=N/A speed=13.8x    frame=34458 fps=331 q=-0.0 size=N/A time=00:23:57.18 bitrate=N/A speed=13.8x    frame=34635 fps=331 q=-0.0 size=N/A time=00:24:04.56 bitrate=N/A speed=13.8x    [Parsed_ssim_16 @ 0000022173926080] SSIM Y:0.994558 (22.642395) U:0.994281 (22.426499) V:0.993928 (22.166384) All:0.994407 (22.523305)
[out#0/null @ 000002216c59dec0] video:14903KiB audio:271276KiB subtitle:0KiB other streams:0KiB global headers:0KiB muxing overhead: unknown
frame=34683 fps=331 q=-0.0 Lsize=N/A time=00:24:06.57 bitrate=N/A speed=13.8x    
